<?xml version="1.0"?>
<svg xmlns="http://www.w3.org/2000/svg" xmlns:xlink="http://www.w3.org/1999/xlink" xmlns:svgjs="http://svgjs.com/svgjs" version="1.1" width="512" height="512" x="0" y="0" viewBox="0 0 512 512" style="enable-background:new 0 0 512 512" xml:space="preserve" class=""><g><g xmlns="http://www.w3.org/2000/svg"><path d="m238.933 29.831h34.133v42.738h-34.133z" fill="#bacdea" data-original="#bacdea" style="" class=""/><path d="m324.267 107.551h-136.534v-23.284c0-8.836 7.163-16 16-16h104.533c8.837 0 16 7.164 16 16v23.284z" fill="#d8e2f3" data-original="#d8e2f3" style="" class=""/><path d="m282.667 34.133h-53.333c-8.837 0-16-7.163-16-16v-2.133c0-8.836 7.163-16 16-16h53.333c8.837 0 16 7.164 16 16v2.133c0 8.837-7.164 16-16 16z" fill="#d8e2f3" data-original="#d8e2f3" style="" class=""/><path d="m282.184 0h-23.694c9.103 0 16.483 7.38 16.483 16.483v1.167c0 9.103-7.38 16.483-16.483 16.483h23.694c9.103 0 16.483-7.38 16.483-16.483v-1.167c0-9.103-7.38-16.483-16.483-16.483z" fill="#bacdea" data-original="#bacdea" style="" class=""/><path d="m307.784 68.267h-23.694c9.103 0 16.483 7.38 16.483 16.483v22.801h23.694v-22.801c0-9.104-7.38-16.483-16.483-16.483z" fill="#bacdea" data-original="#bacdea" style="" class=""/><g><g><path d="m179.2 256c9.426 0 17.067-7.641 17.067-17.067v-34.133c0-9.426-7.641-17.067-17.067-17.067v-9.041h153.6v9.041c-9.426 0-17.067 7.641-17.067 17.067v34.133c0 9.426 7.641 17.067 17.067 17.067v17.469h-153.6z" fill="#2c56e3" data-original="#6a60b2" style="" class=""/><path d="m332.8 187.733v-9.041h-23.694v9.041c-9.426 0-17.067 7.641-17.067 17.067v34.133c0 9.426 7.641 17.067 17.067 17.067v17.469h23.694v-17.469c-9.425 0-17.067-7.641-17.067-17.067v-34.133c0-9.425 7.641-17.067 17.067-17.067z" fill="#1f4bdb" data-original="#5c529f" style="" class=""/></g><path d="m184.658 102.4h142.684c8.135 0 15.14 5.742 16.735 13.72l10.24 51.2c2.112 10.561-5.965 20.414-16.735 20.414h-163.164c-10.77 0-18.847-9.853-16.735-20.414l10.24-51.2c1.595-7.978 8.6-13.72 16.735-13.72z" fill="#335eea" data-original="#766fb5" style="" class=""/><path d="m342.4 512h-172.8c-8.837 0-16-7.163-16-16v-224c0-8.837 7.163-16 16-16h172.8c8.836 0 16 7.163 16 16v224c0 8.837-7.163 16-16 16z" fill="#335eea" data-original="#766fb5" style="" class=""/><path d="m282.133 341.333h-52.267c-4.418 0-8-3.582-8-8v-18.133c0-4.418 3.582-8 8-8h52.267c4.418 0 8 3.582 8 8v18.133c0 4.419-3.581 8-8 8z" fill="#d8e2f3" data-original="#d8e2f3" style="" class=""/><g fill="#695fb1"><path d="m341.917 256h-23.694c9.103 0 16.483 7.38 16.483 16.483v223.034c0 9.103-7.38 16.483-16.483 16.483h23.694c9.103 0 16.483-7.38 16.483-16.483v-223.034c0-9.103-7.38-16.483-16.483-16.483z" fill="#2a54db" data-original="#695fb1" style="" class=""/><path d="m354.317 167.32-10.24-51.2c-1.596-7.977-8.6-13.72-16.735-13.72h-23.694c8.135 0 15.14 5.742 16.735 13.72l10.24 51.2c2.112 10.561-5.965 20.414-16.735 20.414h23.694c10.77-.001 18.848-9.854 16.735-20.414z" fill="#2a54db" data-original="#695fb1" style="" class=""/><path d="m162.295 144.26h25.438c4.268 0 7.726-3.459 7.726-7.726 0-4.268-3.459-7.726-7.726-7.726h-22.348z" fill="#2a54db" data-original="#695fb1" style="" class=""/><path d="m346.615 128.807h-32.65c-4.268 0-7.726 3.459-7.726 7.726 0 4.268 3.459 7.726 7.726 7.726h35.741z" fill="#2a54db" data-original="#695fb1" style="" class=""/></g><path d="m281.892 307.2h-23.694c4.551 0 8.241 3.69 8.241 8.242v17.65c0 4.552-3.69 8.241-8.241 8.241h23.694c4.552 0 8.241-3.69 8.241-8.241v-17.65c0-4.552-3.689-8.242-8.241-8.242z" fill="#bacdea" data-original="#bacdea" style="" class=""/><path d="m153.6 453.073v15.453h204.8v-15.453z" fill="#1f4bdb" data-original="#5c529f" style="" class=""/></g></g></g></svg>
